# Blender v2.69 (sub 0) OBJ File: 'terrain.blend'
# www.blender.org
mtllib terrain.mtl
o Grid.001
v 2.000000 0.000000 2.000000
v 1.555556 0.000000 2.000000
v 1.111111 0.000000 2.000000
v 0.666667 0.000000 2.000000
v 0.222222 0.000000 2.000000
v -0.222222 0.000000 2.000000
v -0.666667 0.000000 2.000000
v -1.111111 0.000000 2.000000
v -1.555555 0.000000 2.000000
v -2.000000 0.000000 2.000000
v 2.000000 0.000000 1.555556
v 1.555556 0.000000 1.555556
v 1.111111 0.000000 1.555556
v 0.666667 0.000000 1.555556
v 0.222222 0.000000 1.555556
v -0.222222 0.000000 1.555556
v -0.666667 0.000000 1.555556
v -1.111111 0.000000 1.555556
v -1.555555 0.000000 1.555556
v -2.000000 0.000000 1.555556
v 2.000000 0.000000 1.111111
v 1.555556 0.000000 1.111111
v 1.111111 0.000000 1.111111
v 0.666667 0.000000 1.111111
v 0.222222 0.000000 1.111111
v -0.222222 0.000000 1.111111
v -0.666667 0.000000 1.111111
v -1.111111 0.000000 1.111111
v -1.555555 0.000000 1.111111
v -2.000000 0.000000 1.111111
v 2.000000 0.000000 0.666667
v 1.555556 0.000000 0.666667
v 1.111111 0.000000 0.666667
v 0.666667 0.000000 0.666667
v 0.222222 0.000000 0.666667
v -0.222222 0.000000 0.666667
v -0.666667 0.000000 0.666667
v -1.111111 0.000000 0.666667
v -1.555555 0.000000 0.666667
v -2.000000 0.000000 0.666667
v 2.000000 0.000000 0.222222
v 1.555556 0.000000 0.222222
v 1.111111 0.000000 0.222222
v 0.666667 0.000000 0.222222
v 0.222222 0.000000 0.222222
v -0.222222 0.000000 0.222222
v -0.666667 0.000000 0.222222
v -1.111111 0.000000 0.222222
v -1.555555 0.000000 0.222222
v -2.000000 0.000000 0.222222
v 2.000000 0.000000 -0.222222
v 1.555556 0.000000 -0.222222
v 1.111111 0.000000 -0.222222
v 0.666667 0.000000 -0.222222
v 0.222222 0.000000 -0.222222
v -0.222222 0.000000 -0.222222
v -0.666667 0.000000 -0.222222
v -1.111111 0.000000 -0.222222
v -1.555555 0.000000 -0.222222
v -2.000000 0.000000 -0.222222
v 2.000000 0.000000 -0.666667
v 1.555556 0.000000 -0.666667
v 1.111111 0.000000 -0.666667
v 0.666667 0.000000 -0.666667
v 0.222222 0.000000 -0.666667
v -0.222222 0.000000 -0.666667
v -0.666667 0.000000 -0.666667
v -1.111111 0.000000 -0.666667
v -1.555555 0.000000 -0.666667
v -2.000000 0.000000 -0.666667
v 2.000000 0.000000 -1.111111
v 1.555556 0.000000 -1.111111
v 1.111111 0.000000 -1.111111
v 0.666667 0.000000 -1.111111
v 0.222222 0.000000 -1.111111
v -0.222222 0.000000 -1.111111
v -0.666667 0.000000 -1.111111
v -1.111111 0.000000 -1.111111
v -1.555555 0.000000 -1.111111
v -2.000000 0.000000 -1.111111
v 2.000000 0.000000 -1.555555
v 1.555556 0.000000 -1.555555
v 1.111111 0.000000 -1.555555
v 0.666667 0.000000 -1.555555
v 0.222222 0.000000 -1.555555
v -0.222222 0.000000 -1.555555
v -0.666667 0.000000 -1.555555
v -1.111111 0.000000 -1.555555
v -1.555555 0.000000 -1.555555
v -2.000000 0.000000 -1.555555
v 2.000000 0.000000 -2.000000
v 1.555556 0.000000 -2.000000
v 1.111111 0.000000 -2.000000
v 0.666667 0.000000 -2.000000
v 0.222222 0.000000 -2.000000
v -0.222222 0.000000 -2.000000
v -0.666667 0.000000 -2.000000
v -1.111111 0.000000 -2.000000
v -1.555555 0.000000 -2.000000
v -2.000000 0.000000 -2.000000
v -1.555555 0.000000 1.111111
vt 0.002315 0.000000
vt 0.112912 0.000000
vt 0.112912 0.111111
vt 0.002315 0.111111
vt 0.223508 0.000000
vt 0.223508 0.111111
vt 0.334105 0.000000
vt 0.334105 0.111111
vt 0.444702 0.000000
vt 0.444702 0.111111
vt 0.555298 0.000000
vt 0.555298 0.111111
vt 0.665895 0.000000
vt 0.665895 0.111111
vt 0.776492 0.000000
vt 0.776492 0.111111
vt 0.887088 0.000000
vt 0.887088 0.111111
vt 0.997685 0.000000
vt 0.997685 0.111111
vt 0.112912 0.222222
vt 0.002315 0.222222
vt 0.223508 0.222222
vt 0.334105 0.222222
vt 0.444702 0.222222
vt 0.555298 0.222222
vt 0.665895 0.222222
vt 0.776492 0.222222
vt 0.887088 0.222222
vt 0.997685 0.222222
vt 0.112912 0.333333
vt 0.002315 0.333333
vt 0.223508 0.333333
vt 0.334105 0.333333
vt 0.444702 0.333333
vt 0.555298 0.333333
vt 0.665895 0.333333
vt 0.776492 0.333333
vt 0.887088 0.333333
vt 0.997685 0.333333
vt 0.112912 0.444444
vt 0.002315 0.444444
vt 0.223508 0.444444
vt 0.334105 0.444444
vt 0.444702 0.444444
vt 0.555298 0.444444
vt 0.665895 0.444444
vt 0.776492 0.444444
vt 0.887088 0.444444
vt 0.997685 0.444444
vt 0.112912 0.555556
vt 0.002315 0.555556
vt 0.223508 0.555556
vt 0.334105 0.555556
vt 0.444702 0.555556
vt 0.555298 0.555556
vt 0.665895 0.555556
vt 0.776492 0.555556
vt 0.887088 0.555556
vt 0.997685 0.555556
vt 0.112912 0.666667
vt 0.002315 0.666667
vt 0.223508 0.666667
vt 0.334105 0.666667
vt 0.444702 0.666667
vt 0.555298 0.666667
vt 0.665895 0.666667
vt 0.776492 0.666667
vt 0.887088 0.666667
vt 0.997685 0.666667
vt 0.112912 0.777778
vt 0.002315 0.777778
vt 0.223508 0.777778
vt 0.334105 0.777778
vt 0.444702 0.777778
vt 0.555298 0.777778
vt 0.665895 0.777778
vt 0.776492 0.777778
vt 0.887088 0.777778
vt 0.997685 0.777778
vt 0.112912 0.888889
vt 0.002315 0.888889
vt 0.223508 0.888889
vt 0.334105 0.888889
vt 0.444702 0.888889
vt 0.555298 0.888889
vt 0.665895 0.888889
vt 0.776492 0.888889
vt 0.887088 0.888889
vt 0.997685 0.888889
vt 0.112912 1.000000
vt 0.002315 1.000000
vt 0.223508 1.000000
vt 0.334105 1.000000
vt 0.444702 1.000000
vt 0.555298 1.000000
vt 0.665895 1.000000
vt 0.776492 1.000000
vt 0.887088 1.000000
vt 0.997685 1.000000
vn 0.000000 1.000000 0.000000
usemtl Material.001
s off
f 10/1/1 9/2/1 19/3/1 20/4/1
f 9/2/1 8/5/1 18/6/1 19/3/1
f 8/5/1 7/7/1 17/8/1 18/6/1
f 7/7/1 6/9/1 16/10/1 17/8/1
f 6/9/1 5/11/1 15/12/1 16/10/1
f 5/11/1 4/13/1 14/14/1 15/12/1
f 4/13/1 3/15/1 13/16/1 14/14/1
f 3/15/1 2/17/1 12/18/1 13/16/1
f 2/17/1 1/19/1 11/20/1 12/18/1
f 20/4/1 19/3/1 29/21/1 30/22/1
f 19/3/1 18/6/1 28/23/1 29/21/1
f 18/6/1 17/8/1 27/24/1 28/23/1
f 17/8/1 16/10/1 26/25/1 27/24/1
f 16/10/1 15/12/1 25/26/1 26/25/1
f 15/12/1 14/14/1 24/27/1 25/26/1
f 14/14/1 13/16/1 23/28/1 24/27/1
f 13/16/1 12/18/1 22/29/1 23/28/1
f 12/18/1 11/20/1 21/30/1 22/29/1
f 30/22/1 29/21/1 39/31/1 40/32/1
f 29/21/1 28/23/1 38/33/1 39/31/1
f 28/23/1 27/24/1 37/34/1 38/33/1
f 27/24/1 26/25/1 36/35/1 37/34/1
f 26/25/1 25/26/1 35/36/1 36/35/1
f 25/26/1 24/27/1 34/37/1 35/36/1
f 24/27/1 23/28/1 33/38/1 34/37/1
f 23/28/1 22/29/1 32/39/1 33/38/1
f 22/29/1 21/30/1 31/40/1 32/39/1
f 40/32/1 39/31/1 49/41/1 50/42/1
f 39/31/1 38/33/1 48/43/1 49/41/1
f 38/33/1 37/34/1 47/44/1 48/43/1
f 37/34/1 36/35/1 46/45/1 47/44/1
f 36/35/1 35/36/1 45/46/1 46/45/1
f 35/36/1 34/37/1 44/47/1 45/46/1
f 34/37/1 33/38/1 43/48/1 44/47/1
f 33/38/1 32/39/1 42/49/1 43/48/1
f 32/39/1 31/40/1 41/50/1 42/49/1
f 50/42/1 49/41/1 59/51/1 60/52/1
f 49/41/1 48/43/1 58/53/1 59/51/1
f 48/43/1 47/44/1 57/54/1 58/53/1
f 47/44/1 46/45/1 56/55/1 57/54/1
f 46/45/1 45/46/1 55/56/1 56/55/1
f 45/46/1 44/47/1 54/57/1 55/56/1
f 44/47/1 43/48/1 53/58/1 54/57/1
f 43/48/1 42/49/1 52/59/1 53/58/1
f 42/49/1 41/50/1 51/60/1 52/59/1
f 60/52/1 59/51/1 69/61/1 70/62/1
f 59/51/1 58/53/1 68/63/1 69/61/1
f 58/53/1 57/54/1 67/64/1 68/63/1
f 57/54/1 56/55/1 66/65/1 67/64/1
f 56/55/1 55/56/1 65/66/1 66/65/1
f 55/56/1 54/57/1 64/67/1 65/66/1
f 54/57/1 53/58/1 63/68/1 64/67/1
f 53/58/1 52/59/1 62/69/1 63/68/1
f 52/59/1 51/60/1 61/70/1 62/69/1
f 70/62/1 69/61/1 79/71/1 80/72/1
f 69/61/1 68/63/1 78/73/1 79/71/1
f 68/63/1 67/64/1 77/74/1 78/73/1
f 67/64/1 66/65/1 76/75/1 77/74/1
f 66/65/1 65/66/1 75/76/1 76/75/1
f 65/66/1 64/67/1 74/77/1 75/76/1
f 64/67/1 63/68/1 73/78/1 74/77/1
f 63/68/1 62/69/1 72/79/1 73/78/1
f 62/69/1 61/70/1 71/80/1 72/79/1
f 80/72/1 79/71/1 89/81/1 90/82/1
f 79/71/1 78/73/1 88/83/1 89/81/1
f 78/73/1 77/74/1 87/84/1 88/83/1
f 77/74/1 76/75/1 86/85/1 87/84/1
f 76/75/1 75/76/1 85/86/1 86/85/1
f 75/76/1 74/77/1 84/87/1 85/86/1
f 74/77/1 73/78/1 83/88/1 84/87/1
f 73/78/1 72/79/1 82/89/1 83/88/1
f 72/79/1 71/80/1 81/90/1 82/89/1
f 90/82/1 89/81/1 99/91/1 100/92/1
f 89/81/1 88/83/1 98/93/1 99/91/1
f 88/83/1 87/84/1 97/94/1 98/93/1
f 87/84/1 86/85/1 96/95/1 97/94/1
f 86/85/1 85/86/1 95/96/1 96/95/1
f 85/86/1 84/87/1 94/97/1 95/96/1
f 84/87/1 83/88/1 93/98/1 94/97/1
f 83/88/1 82/89/1 92/99/1 93/98/1
f 82/89/1 81/90/1 91/100/1 92/99/1
